<svg width="1439" height="395" viewBox="0 0 1439 395" fill="none" xmlns="http://www.w3.org/2000/svg">
<path d="M0 2C0 2 407.74 195.985 717.5 197.5C1030.43 199.031 1437 2 1437 2" stroke="white" stroke-width="3" stroke-linecap="round" stroke-linejoin="round" stroke-dasharray="15 15"/>
<g clip-path="url(#clip0_312_76)">
<path d="M67.285 28.7668L77.6669 31.7641L89.078 23.4766L72.7017 23.946C72.5413 23.9548 72.3859 24.0045 72.2503 24.0905L67.0683 27.0696C66.9071 27.1589 66.7764 27.2945 66.6932 27.4589C66.6099 27.6233 66.5778 27.8089 66.6012 27.9917C66.6245 28.1745 66.7021 28.3461 66.8241 28.4843C66.946 28.6225 67.1065 28.7209 67.285 28.7668Z" fill="white"/>
<path d="M118.328 19.4859L106.953 17.0304C105.996 16.8227 105.006 16.8232 104.049 17.0319C103.093 17.2407 102.193 17.6527 101.41 18.2401L67.0499 43.2109L58.7985 42.8498C58.3258 42.8337 57.8601 42.9665 57.467 43.2295C57.0739 43.4924 56.7734 43.8721 56.6078 44.3151C56.4422 44.758 56.4199 45.2418 56.5441 45.6981C56.6682 46.1544 56.9326 46.5602 57.2999 46.8581L65.3346 53.2317C65.4669 53.3385 65.6243 53.4094 65.7919 53.4379C65.9594 53.4663 66.1314 53.4513 66.2915 53.3942C68.5846 52.5095 77.1249 47.9776 87.2179 42.4345L89.2401 63.2165C89.2573 63.3965 89.3233 63.5683 89.431 63.7136C89.5386 63.8588 89.6839 63.9719 89.8511 64.0407C90.0183 64.1094 90.2012 64.1312 90.3799 64.1037C90.5586 64.0762 90.7264 64.0004 90.8651 63.8845L95.379 60.129C95.6261 59.9217 95.7923 59.6341 95.8485 59.3165L100.128 35.3206C107.35 31.3123 114.247 27.4304 119.104 24.6859C119.608 24.4116 120.016 23.9891 120.271 23.4754C120.527 22.9618 120.619 22.3819 120.534 21.8144C120.45 21.2469 120.192 20.7191 119.798 20.3026C119.403 19.8861 118.89 19.601 118.328 19.4859Z" fill="white"/>
</g>
<g clip-path="url(#clip1_312_76)">
<path d="M90.6123 97.9053L83.6807 103.094C82.5732 103.914 81.9375 105.227 81.9375 106.601V108.467C81.9375 109.861 83.0654 110.989 84.46 110.989C84.9521 110.989 85.4443 110.846 85.8545 110.559L94.4268 104.837C94.8369 104.57 95.3291 104.406 95.8213 104.406H96.0264C97.2979 104.406 98.3438 105.452 98.3438 106.724C98.3438 107.339 98.0977 107.934 97.667 108.364L93.5859 112.445C92.3935 113.638 90.9402 114.536 89.3408 115.07L83.9063 116.875C82.7168 117.265 81.9375 118.372 81.9375 119.623C81.9375 120.382 81.6299 121.12 81.0967 121.674L77.4258 125.345C76.1133 126.657 75.3955 128.421 75.3955 130.267V131.148C75.3955 134.512 78.1846 137.239 81.5273 137.239C83.7832 137.239 85.875 135.968 86.8799 133.958L87.7002 132.297C88.1924 131.312 89.2178 130.677 90.3252 130.677C91.248 130.677 92.1094 131.107 92.6631 131.846L96.0059 136.296C96.4365 136.891 97.1338 137.219 97.8721 137.219C99.5947 137.219 100.723 135.394 99.9434 133.855L99.7178 133.384C99 131.948 99.7178 130.205 101.256 129.692L105.604 128.236C107.162 127.724 108.208 126.268 108.208 124.627C108.208 122.515 109.91 120.812 112.022 120.812H118.031C119.836 120.812 121.312 122.289 121.312 124.094C121.312 125.898 119.836 127.375 118.031 127.375H113.786C112.31 127.375 110.874 127.97 109.828 129.016L108.864 129.979C108.434 130.41 108.188 131.005 108.188 131.62C108.188 132.892 109.233 133.938 110.505 133.938H112.822C114.053 133.938 115.242 134.43 116.104 135.291L117.437 136.624C117.806 136.993 118.011 137.506 118.011 138.019C118.011 138.531 117.806 139.044 117.437 139.413L115.898 140.951C115.16 141.73 114.75 142.735 114.75 143.781C114.75 144.827 115.16 145.832 115.919 146.591L119.672 150.344C121.764 152.436 124.614 153.625 127.588 153.625H129.105C130.438 149.482 131.156 145.073 131.156 140.5C131.156 117.654 113.191 98.9922 90.6123 97.9053ZM125.886 161.049C125.127 160.516 124.204 160.208 123.22 160.208C121.989 160.208 120.8 159.716 119.938 158.854L117.211 156.086C115.632 154.507 113.52 153.625 111.284 153.625C109.295 153.625 107.347 152.907 105.829 151.615L100.395 146.939C98.0156 144.909 94.9805 143.781 91.8428 143.781H87.5566C84.9727 143.781 82.4297 144.54 80.2764 145.976L74.6572 149.729C71.0068 152.169 68.8125 156.271 68.8125 160.659V161.315C68.8125 164.802 70.1865 168.145 72.6475 170.605L75.9287 173.887C77.6719 175.63 80.0303 176.614 82.4912 176.614H86.8594C89.5869 176.614 91.7812 178.809 91.7812 181.536C91.7812 182.049 91.8633 182.562 92.0068 183.033C106.629 181.844 119.18 173.271 125.886 161.049ZM36 140.5C36 126.576 41.5312 113.223 51.3769 103.377C61.2226 93.5312 74.5761 88 88.5 88C102.424 88 115.777 93.5312 125.623 103.377C135.469 113.223 141 126.576 141 140.5C141 154.424 135.469 167.777 125.623 177.623C115.777 187.469 102.424 193 88.5 193C74.5761 193 61.2226 187.469 51.3769 177.623C41.5312 167.777 36 154.424 36 140.5ZM74.4111 108.651C73.1396 107.38 71.0479 107.38 69.7764 108.651L63.2139 115.214C61.9424 116.485 61.9424 118.577 63.2139 119.849C64.4854 121.12 66.5771 121.12 67.8486 119.849L74.4111 113.286C75.6826 112.015 75.6826 109.923 74.4111 108.651Z" fill="white"/>
</g>
<path d="M61.102 225V212.4H68.68V214.02H62.866V217.764H68.104V219.348H62.866V223.38H68.716V225H61.102ZM77.4428 225L77.3348 223.344V216H79.0268V225H77.4428ZM71.1068 220.608V216H72.8168V220.608H71.1068ZM72.8168 220.608C72.8168 221.412 72.9068 222.03 73.0868 222.462C73.2788 222.894 73.5428 223.194 73.8788 223.362C74.2148 223.53 74.5928 223.62 75.0128 223.632C75.7448 223.632 76.3148 223.374 76.7228 222.858C77.1308 222.342 77.3348 221.616 77.3348 220.68H78.0728C78.0728 221.628 77.9288 222.444 77.6408 223.128C77.3648 223.8 76.9688 224.316 76.4528 224.676C75.9368 225.036 75.3068 225.216 74.5628 225.216C73.8668 225.216 73.2548 225.072 72.7268 224.784C72.2108 224.496 71.8088 224.046 71.5208 223.434C71.2448 222.822 71.1068 222.03 71.1068 221.058V220.608H72.8168ZM82.4566 220.158C82.4566 219.186 82.6426 218.394 83.0146 217.782C83.3866 217.17 83.8666 216.714 84.4546 216.414C85.0426 216.114 85.6606 215.964 86.3086 215.964V217.584C85.7686 217.584 85.2526 217.668 84.7606 217.836C84.2806 217.992 83.8846 218.256 83.5726 218.628C83.2726 218.988 83.1226 219.48 83.1226 220.104L82.4566 220.158ZM81.4126 225V216H83.1226V225H81.4126ZM91.756 225.216C90.856 225.216 90.064 225.018 89.38 224.622C88.696 224.214 88.156 223.656 87.76 222.948C87.376 222.24 87.184 221.424 87.184 220.5C87.184 219.576 87.376 218.76 87.76 218.052C88.144 217.344 88.678 216.792 89.362 216.396C90.046 215.988 90.832 215.784 91.72 215.784C92.608 215.784 93.394 215.988 94.078 216.396C94.762 216.792 95.296 217.344 95.68 218.052C96.064 218.76 96.256 219.576 96.256 220.5C96.256 221.424 96.064 222.24 95.68 222.948C95.296 223.656 94.762 224.214 94.078 224.622C93.406 225.018 92.632 225.216 91.756 225.216ZM91.756 223.65C92.296 223.65 92.776 223.518 93.196 223.254C93.616 222.978 93.94 222.606 94.168 222.138C94.408 221.67 94.528 221.124 94.528 220.5C94.528 219.876 94.408 219.33 94.168 218.862C93.94 218.394 93.61 218.028 93.178 217.764C92.746 217.488 92.26 217.35 91.72 217.35C91.168 217.35 90.682 217.488 90.262 217.764C89.842 218.028 89.512 218.394 89.272 218.862C89.032 219.33 88.912 219.876 88.912 220.5C88.912 221.124 89.032 221.67 89.272 222.138C89.512 222.606 89.848 222.978 90.28 223.254C90.712 223.518 91.204 223.65 91.756 223.65ZM98.2194 228.6V216H99.8214L99.9294 217.656V228.6H98.2194ZM102.881 225.216C102.125 225.216 101.465 225.018 100.901 224.622C100.349 224.226 99.9234 223.674 99.6234 222.966C99.3234 222.258 99.1734 221.436 99.1734 220.5C99.1734 219.552 99.3234 218.73 99.6234 218.034C99.9234 217.326 100.349 216.774 100.901 216.378C101.465 215.982 102.125 215.784 102.881 215.784C103.685 215.784 104.393 215.982 105.005 216.378C105.617 216.774 106.091 217.326 106.427 218.034C106.775 218.73 106.949 219.552 106.949 220.5C106.949 221.436 106.775 222.258 106.427 222.966C106.091 223.674 105.617 224.226 105.005 224.622C104.393 225.018 103.685 225.216 102.881 225.216ZM102.467 223.668C103.007 223.668 103.481 223.536 103.889 223.272C104.297 222.996 104.615 222.624 104.843 222.156C105.083 221.676 105.203 221.124 105.203 220.5C105.203 219.876 105.089 219.33 104.861 218.862C104.633 218.382 104.315 218.01 103.907 217.746C103.499 217.47 103.025 217.332 102.485 217.332C101.993 217.332 101.549 217.47 101.153 217.746C100.769 218.01 100.469 218.382 100.253 218.862C100.037 219.342 99.9294 219.888 99.9294 220.5C99.9294 221.124 100.037 221.676 100.253 222.156C100.469 222.624 100.769 222.996 101.153 223.272C101.537 223.536 101.975 223.668 102.467 223.668ZM112.795 225.216C111.919 225.216 111.145 225.018 110.473 224.622C109.801 224.214 109.273 223.656 108.889 222.948C108.505 222.24 108.313 221.424 108.313 220.5C108.313 219.576 108.505 218.76 108.889 218.052C109.273 217.344 109.801 216.792 110.473 216.396C111.157 215.988 111.937 215.784 112.813 215.784C113.641 215.784 114.367 215.994 114.991 216.414C115.615 216.822 116.101 217.41 116.449 218.178C116.809 218.934 116.989 219.828 116.989 220.86H109.717L110.041 220.59C110.041 221.226 110.167 221.778 110.419 222.246C110.671 222.714 111.013 223.074 111.445 223.326C111.877 223.566 112.369 223.686 112.921 223.686C113.521 223.686 114.019 223.548 114.415 223.272C114.823 222.984 115.141 222.624 115.369 222.192L116.845 222.876C116.605 223.344 116.293 223.758 115.909 224.118C115.525 224.466 115.069 224.736 114.541 224.928C114.025 225.12 113.443 225.216 112.795 225.216ZM110.149 219.78L109.807 219.51H115.495L115.171 219.78C115.171 219.252 115.063 218.802 114.847 218.43C114.631 218.046 114.343 217.758 113.983 217.566C113.623 217.362 113.221 217.26 112.777 217.26C112.345 217.26 111.925 217.362 111.517 217.566C111.121 217.758 110.791 218.04 110.527 218.412C110.275 218.784 110.149 219.24 110.149 219.78Z" fill="white"/>
<g clip-path="url(#clip2_312_76)">
<path d="M376.285 129.767L386.667 132.764L398.078 124.477L381.702 124.946C381.541 124.955 381.386 125.004 381.25 125.09L376.068 128.07C375.907 128.159 375.776 128.295 375.693 128.459C375.61 128.623 375.578 128.809 375.601 128.992C375.624 129.174 375.702 129.346 375.824 129.484C375.946 129.622 376.107 129.721 376.285 129.767Z" fill="white"/>
<path d="M427.328 120.486L415.953 118.03C414.996 117.823 414.006 117.823 413.049 118.032C412.093 118.241 411.193 118.653 410.41 119.24L376.05 144.211L367.798 143.85C367.326 143.834 366.86 143.967 366.467 144.229C366.074 144.492 365.773 144.872 365.608 145.315C365.442 145.758 365.42 146.242 365.544 146.698C365.668 147.154 365.933 147.56 366.3 147.858L374.335 154.232C374.467 154.338 374.624 154.409 374.792 154.438C374.959 154.466 375.131 154.451 375.292 154.394C377.585 153.51 386.125 148.978 396.218 143.435L398.24 164.216C398.257 164.396 398.323 164.568 398.431 164.714C398.539 164.859 398.684 164.972 398.851 165.041C399.018 165.109 399.201 165.131 399.38 165.104C399.559 165.076 399.726 165 399.865 164.885L404.379 161.129C404.626 160.922 404.792 160.634 404.848 160.316L409.128 136.321C416.35 132.312 423.247 128.43 428.104 125.686C428.608 125.412 429.016 124.989 429.271 124.475C429.527 123.962 429.619 123.382 429.534 122.814C429.45 122.247 429.192 121.719 428.798 121.303C428.403 120.886 427.89 120.601 427.328 120.486Z" fill="white"/>
</g>
<g clip-path="url(#clip3_312_76)">
<path d="M355.603 255.519L362.104 256.811C363.724 257.139 365.385 256.626 366.554 255.457L369.712 252.299C372.091 249.92 376.09 250.576 377.587 253.57L379.494 257.364C380.479 259.333 382.488 260.584 384.703 260.584C387.82 260.584 390.056 257.59 389.153 254.596L387.923 250.515C386.979 247.356 389.338 244.178 392.64 244.178H393.111C395.859 244.178 398.423 242.804 399.94 240.527L402.135 237.226C403.283 235.482 403.222 233.206 401.971 231.545L398.669 227.136C396.557 224.326 397.992 220.266 401.417 219.404L404.903 218.522C406.441 218.133 407.692 217.046 408.287 215.569L411.65 207.182C407.221 205.685 402.463 204.844 397.5 204.844C373.937 204.844 354.844 223.937 354.844 247.5C354.844 250.248 355.11 252.935 355.603 255.519ZM439.213 256.462C438.598 256.4 437.982 256.441 437.367 256.626L434.127 257.528C432.753 257.918 431.297 257.344 430.538 256.154L430.128 255.519C428.897 253.591 426.765 252.422 424.468 252.422C422.171 252.422 420.038 253.591 418.808 255.519L417.557 257.467C417.27 257.918 416.859 258.308 416.388 258.554L408.984 262.696C405.272 264.768 403.755 269.341 405.498 273.217L406.626 275.76C408.39 279.697 412.922 281.604 416.982 280.087L417.516 279.882C419.566 279.123 421.884 279.431 423.647 280.723L423.955 280.948C431.584 274.898 437.101 266.306 439.213 256.441V256.462ZM345 247.5C345 233.576 350.531 220.223 360.377 210.377C370.223 200.531 383.576 195 397.5 195C411.424 195 424.777 200.531 434.623 210.377C444.469 220.223 450 233.576 450 247.5C450 261.424 444.469 274.777 434.623 284.623C424.777 294.469 411.424 300 397.5 300C383.576 300 370.223 294.469 360.377 284.623C350.531 274.777 345 261.424 345 247.5ZM374.634 266.388C374.203 268.151 375.27 269.936 377.013 270.366L383.575 272.007C385.339 272.437 387.123 271.371 387.554 269.628C387.984 267.885 386.918 266.08 385.175 265.649L378.612 264.009C376.849 263.578 375.064 264.645 374.634 266.388ZM393.501 262.286C393.07 264.05 394.137 265.834 395.88 266.265C397.623 266.695 399.428 265.629 399.858 263.886L401.499 257.323C401.93 255.56 400.863 253.775 399.12 253.345C397.377 252.914 395.572 253.98 395.142 255.724L393.501 262.286ZM415.383 218.317C413.763 217.497 411.794 218.174 410.974 219.794L407.692 226.356C406.872 227.977 407.549 229.945 409.169 230.766C410.789 231.586 412.758 230.909 413.578 229.289L416.859 222.727C417.68 221.106 417.003 219.138 415.383 218.317Z" fill="white"/>
</g>
<path d="M390.314 338L385.328 325.4H387.128L392.204 338H390.314ZM380.162 338L385.238 325.4H387.038L382.052 338H380.162ZM382.556 334.634V333.05H389.81V334.634H382.556ZM396.767 338.216C396.131 338.216 395.561 338.12 395.057 337.928C394.565 337.736 394.145 337.478 393.797 337.154C393.461 336.83 393.209 336.464 393.041 336.056L394.517 335.408C394.709 335.78 394.997 336.086 395.381 336.326C395.765 336.566 396.191 336.686 396.659 336.686C397.175 336.686 397.601 336.59 397.937 336.398C398.273 336.206 398.441 335.936 398.441 335.588C398.441 335.252 398.315 334.988 398.063 334.796C397.811 334.604 397.445 334.448 396.965 334.328L396.119 334.112C395.279 333.884 394.625 333.542 394.157 333.086C393.701 332.63 393.473 332.114 393.473 331.538C393.473 330.662 393.755 329.984 394.319 329.504C394.883 329.024 395.717 328.784 396.821 328.784C397.361 328.784 397.853 328.862 398.297 329.018C398.753 329.174 399.137 329.396 399.449 329.684C399.773 329.972 400.001 330.314 400.133 330.71L398.693 331.358C398.549 330.998 398.303 330.734 397.955 330.566C397.607 330.386 397.199 330.296 396.731 330.296C396.251 330.296 395.873 330.404 395.597 330.62C395.321 330.824 395.183 331.112 395.183 331.484C395.183 331.688 395.297 331.886 395.525 332.078C395.765 332.258 396.113 332.408 396.569 332.528L397.541 332.762C398.129 332.906 398.615 333.128 398.999 333.428C399.383 333.716 399.671 334.046 399.863 334.418C400.055 334.778 400.151 335.156 400.151 335.552C400.151 336.092 400.001 336.566 399.701 336.974C399.413 337.37 399.011 337.676 398.495 337.892C397.991 338.108 397.415 338.216 396.767 338.216ZM402.038 338V329H403.748V338H402.038ZM402.902 327.092C402.626 327.092 402.386 326.99 402.182 326.786C401.978 326.57 401.876 326.324 401.876 326.048C401.876 325.76 401.978 325.52 402.182 325.328C402.386 325.124 402.626 325.022 402.902 325.022C403.19 325.022 403.43 325.124 403.622 325.328C403.826 325.52 403.928 325.76 403.928 326.048C403.928 326.324 403.826 326.57 403.622 326.786C403.43 326.99 403.19 327.092 402.902 327.092ZM411.78 338L411.708 336.434V333.302C411.708 332.642 411.63 332.09 411.474 331.646C411.33 331.202 411.102 330.866 410.79 330.638C410.49 330.41 410.088 330.296 409.584 330.296C409.116 330.296 408.708 330.392 408.36 330.584C408.024 330.776 407.742 331.076 407.514 331.484L406.002 330.908C406.218 330.5 406.488 330.14 406.812 329.828C407.136 329.504 407.526 329.252 407.982 329.072C408.438 328.88 408.972 328.784 409.584 328.784C410.436 328.784 411.144 328.952 411.708 329.288C412.272 329.624 412.692 330.11 412.968 330.746C413.256 331.382 413.394 332.168 413.382 333.104L413.364 338H411.78ZM409.134 338.216C408.066 338.216 407.232 337.976 406.632 337.496C406.044 337.004 405.75 336.326 405.75 335.462C405.75 334.538 406.056 333.836 406.668 333.356C407.292 332.864 408.156 332.618 409.26 332.618H411.762V333.968H409.728C408.9 333.968 408.318 334.1 407.982 334.364C407.646 334.616 407.478 334.97 407.478 335.426C407.478 335.846 407.634 336.176 407.946 336.416C408.27 336.644 408.714 336.758 409.278 336.758C409.77 336.758 410.196 336.656 410.556 336.452C410.916 336.236 411.198 335.936 411.402 335.552C411.606 335.168 411.708 334.73 411.708 334.238H412.302C412.302 335.462 412.038 336.434 411.51 337.154C410.994 337.862 410.202 338.216 409.134 338.216Z" fill="white"/>
<g clip-path="url(#clip4_312_76)">
<path d="M685.285 185.767L695.667 188.764L707.078 180.477L690.702 180.946C690.541 180.955 690.386 181.004 690.25 181.09L685.068 184.07C684.907 184.159 684.776 184.295 684.693 184.459C684.61 184.623 684.578 184.809 684.601 184.992C684.624 185.174 684.702 185.346 684.824 185.484C684.946 185.622 685.107 185.721 685.285 185.767Z" fill="white"/>
<path d="M736.328 176.486L724.953 174.03C723.996 173.823 723.006 173.823 722.049 174.032C721.093 174.241 720.193 174.653 719.41 175.24L685.05 200.211L676.798 199.85C676.326 199.834 675.86 199.967 675.467 200.229C675.074 200.492 674.773 200.872 674.608 201.315C674.442 201.758 674.42 202.242 674.544 202.698C674.668 203.154 674.933 203.56 675.3 203.858L683.335 210.232C683.467 210.338 683.624 210.409 683.792 210.438C683.959 210.466 684.131 210.451 684.292 210.394C686.585 209.51 695.125 204.978 705.218 199.435L707.24 220.216C707.257 220.396 707.323 220.568 707.431 220.714C707.539 220.859 707.684 220.972 707.851 221.041C708.018 221.109 708.201 221.131 708.38 221.104C708.559 221.076 708.726 221 708.865 220.885L713.379 217.129C713.626 216.922 713.792 216.634 713.848 216.316L718.128 192.321C725.35 188.312 732.247 184.43 737.104 181.686C737.608 181.412 738.016 180.989 738.271 180.475C738.527 179.962 738.619 179.382 738.534 178.814C738.45 178.247 738.192 177.719 737.798 177.303C737.403 176.886 736.89 176.601 736.328 176.486Z" fill="white"/>
</g>
<path d="M692.314 394L687.328 381.4H689.128L694.204 394H692.314ZM682.162 394L687.238 381.4H689.038L684.052 394H682.162ZM684.556 390.634V389.05H691.81V390.634H684.556ZM696.445 394V384.01C696.445 383.062 696.673 382.348 697.129 381.868C697.585 381.376 698.275 381.13 699.199 381.13C699.475 381.13 699.775 381.178 700.099 381.274C700.423 381.358 700.753 381.478 701.089 381.634L700.459 382.948C700.207 382.828 699.985 382.744 699.793 382.696C699.613 382.636 699.457 382.606 699.325 382.606C698.929 382.606 698.635 382.738 698.443 383.002C698.251 383.254 698.155 383.65 698.155 384.19V394H696.445ZM694.843 386.422V385H700.639V386.422H694.843ZM703.357 389.158C703.357 388.186 703.543 387.394 703.915 386.782C704.287 386.17 704.767 385.714 705.355 385.414C705.943 385.114 706.561 384.964 707.209 384.964V386.584C706.669 386.584 706.153 386.668 705.661 386.836C705.181 386.992 704.785 387.256 704.473 387.628C704.173 387.988 704.023 388.48 704.023 389.104L703.357 389.158ZM702.313 394V385H704.023V394H702.313ZM708.696 394V385H710.406V394H708.696ZM709.56 383.092C709.284 383.092 709.044 382.99 708.84 382.786C708.636 382.57 708.534 382.324 708.534 382.048C708.534 381.76 708.636 381.52 708.84 381.328C709.044 381.124 709.284 381.022 709.56 381.022C709.848 381.022 710.088 381.124 710.28 381.328C710.484 381.52 710.586 381.76 710.586 382.048C710.586 382.324 710.484 382.57 710.28 382.786C710.088 382.99 709.848 383.092 709.56 383.092ZM717.017 394.216C716.117 394.216 715.319 394.018 714.623 393.622C713.927 393.214 713.381 392.656 712.985 391.948C712.601 391.24 712.409 390.424 712.409 389.5C712.409 388.576 712.601 387.76 712.985 387.052C713.381 386.344 713.921 385.792 714.605 385.396C715.301 384.988 716.093 384.784 716.981 384.784C717.857 384.784 718.643 384.988 719.339 385.396C720.047 385.804 720.575 386.386 720.923 387.142L719.375 387.79C719.147 387.346 718.817 386.998 718.385 386.746C717.965 386.494 717.479 386.368 716.927 386.368C716.387 386.368 715.907 386.5 715.487 386.764C715.067 387.028 714.737 387.4 714.497 387.88C714.257 388.348 714.137 388.888 714.137 389.5C714.137 390.112 714.257 390.652 714.497 391.12C714.737 391.588 715.073 391.96 715.505 392.236C715.937 392.5 716.423 392.632 716.963 392.632C717.515 392.632 718.007 392.494 718.439 392.218C718.871 391.93 719.195 391.546 719.411 391.066L720.977 391.696C720.629 392.488 720.101 393.106 719.393 393.55C718.697 393.994 717.905 394.216 717.017 394.216ZM728.194 394L728.122 392.434V389.302C728.122 388.642 728.044 388.09 727.888 387.646C727.744 387.202 727.516 386.866 727.204 386.638C726.904 386.41 726.502 386.296 725.998 386.296C725.53 386.296 725.122 386.392 724.774 386.584C724.438 386.776 724.156 387.076 723.928 387.484L722.416 386.908C722.632 386.5 722.902 386.14 723.226 385.828C723.55 385.504 723.94 385.252 724.396 385.072C724.852 384.88 725.386 384.784 725.998 384.784C726.85 384.784 727.558 384.952 728.122 385.288C728.686 385.624 729.106 386.11 729.382 386.746C729.67 387.382 729.808 388.168 729.796 389.104L729.778 394H728.194ZM725.548 394.216C724.48 394.216 723.646 393.976 723.046 393.496C722.458 393.004 722.164 392.326 722.164 391.462C722.164 390.538 722.47 389.836 723.082 389.356C723.706 388.864 724.57 388.618 725.674 388.618H728.176V389.968H726.142C725.314 389.968 724.732 390.1 724.396 390.364C724.06 390.616 723.892 390.97 723.892 391.426C723.892 391.846 724.048 392.176 724.36 392.416C724.684 392.644 725.128 392.758 725.692 392.758C726.184 392.758 726.61 392.656 726.97 392.452C727.33 392.236 727.612 391.936 727.816 391.552C728.02 391.168 728.122 390.73 728.122 390.238H728.716C728.716 391.462 728.452 392.434 727.924 393.154C727.408 393.862 726.616 394.216 725.548 394.216Z" fill="white"/>
<g clip-path="url(#clip5_312_76)">
<path fill-rule="evenodd" clip-rule="evenodd" d="M654 303.5C654 289.576 659.531 276.223 669.377 266.377C679.223 256.531 692.576 251 706.5 251C720.424 251 733.777 256.531 743.623 266.377C753.469 276.223 759 289.576 759 303.5C759 317.424 753.469 330.777 743.623 340.623C733.777 350.469 720.424 356 706.5 356C692.576 356 679.223 350.469 669.377 340.623C659.531 330.777 654 317.424 654 303.5ZM661 303.5C661.001 292.612 664.905 282.085 672.003 273.83C679.102 265.574 688.924 260.137 699.689 258.504L703 260.17V262.844L697.932 265.378C697.384 265.653 696.918 266.067 696.581 266.578C696.243 267.089 696.046 267.68 696.008 268.292C695.971 268.903 696.094 269.514 696.367 270.063C696.639 270.612 697.051 271.079 697.561 271.419L708.061 278.419C708.636 278.799 709.311 279.002 710 279H713.5C714.428 279 715.318 278.631 715.975 277.975C716.631 277.318 717 276.428 717 275.5V272H720.5V275.5C720.499 275.96 720.589 276.416 720.764 276.841C720.94 277.266 721.197 277.652 721.522 277.978L724 280.449V284.551L722.551 286H717.826L704.568 279.371C704.081 279.127 703.544 279 703 279C702.456 279 701.919 279.127 701.432 279.371L695.174 282.5H685.5C684.719 282.5 683.961 282.761 683.346 283.242C682.731 283.723 682.294 284.395 682.105 285.153L678.605 299.153C678.458 299.739 678.465 300.354 678.625 300.936C678.786 301.519 679.095 302.05 679.522 302.478L690.022 312.978C690.288 313.242 690.596 313.462 690.932 313.629L696 316.17V324.5C695.999 324.96 696.089 325.416 696.264 325.841C696.44 326.266 696.697 326.652 697.022 326.978L699.5 329.449V335C699.5 335.544 699.627 336.081 699.871 336.568L703.371 343.568C703.662 344.149 704.109 344.637 704.661 344.978C705.214 345.319 705.851 345.5 706.5 345.5H713.5C714.076 345.5 714.644 345.357 715.152 345.085C715.66 344.812 716.093 344.419 716.412 343.939L723.412 333.439C723.492 333.32 723.564 333.196 723.629 333.068L727.129 326.068C727.373 325.581 727.5 325.044 727.5 324.5V318.669L737.3 305.6C737.69 305.08 737.928 304.461 737.986 303.813C738.044 303.165 737.92 302.514 737.629 301.932L736.67 300H741.507C742.435 300 743.325 299.631 743.982 298.975C744.638 298.318 745.007 297.428 745.007 296.5V293H750.789C752.259 299.244 752.392 305.729 751.18 312.028C749.967 318.328 747.436 324.299 743.753 329.552C740.069 334.804 735.317 339.218 729.808 342.504C724.298 345.79 718.156 347.874 711.785 348.619C705.413 349.364 698.956 348.754 692.837 346.828C686.718 344.901 681.076 341.703 676.28 337.442C671.484 333.181 667.644 327.955 665.01 322.105C662.377 316.255 661.01 309.915 661 303.5Z" fill="white"/>
</g>
<g clip-path="url(#clip6_312_76)">
<path d="M993.285 144.767L1003.67 147.764L1015.08 139.477L998.702 139.946C998.541 139.955 998.386 140.004 998.25 140.09L993.068 143.07C992.907 143.159 992.776 143.295 992.693 143.459C992.61 143.623 992.578 143.809 992.601 143.992C992.624 144.174 992.702 144.346 992.824 144.484C992.946 144.622 993.107 144.721 993.285 144.767Z" fill="white"/>
<path d="M1044.33 135.486L1032.95 133.03C1032 132.823 1031.01 132.823 1030.05 133.032C1029.09 133.241 1028.19 133.653 1027.41 134.24L993.05 159.211L984.798 158.85C984.326 158.834 983.86 158.967 983.467 159.229C983.074 159.492 982.773 159.872 982.608 160.315C982.442 160.758 982.42 161.242 982.544 161.698C982.668 162.154 982.933 162.56 983.3 162.858L991.335 169.232C991.467 169.338 991.624 169.409 991.792 169.438C991.959 169.466 992.131 169.451 992.292 169.394C994.585 168.51 1003.12 163.978 1013.22 158.435L1015.24 179.216C1015.26 179.396 1015.32 179.568 1015.43 179.714C1015.54 179.859 1015.68 179.972 1015.85 180.041C1016.02 180.109 1016.2 180.131 1016.38 180.104C1016.56 180.076 1016.73 180 1016.87 179.885L1021.38 176.129C1021.63 175.922 1021.79 175.634 1021.85 175.316L1026.13 151.321C1033.35 147.312 1040.25 143.43 1045.1 140.686C1045.61 140.412 1046.02 139.989 1046.27 139.475C1046.53 138.962 1046.62 138.382 1046.53 137.814C1046.45 137.247 1046.19 136.719 1045.8 136.303C1045.4 135.886 1044.89 135.601 1044.33 135.486Z" fill="white"/>
</g>
<path d="M992.314 336L987.328 323.4H989.128L994.204 336H992.314ZM982.162 336L987.238 323.4H989.038L984.052 336H982.162ZM984.556 332.634V331.05H991.81V332.634H984.556ZM995.545 336V327H997.147L997.219 328.242C997.507 327.762 997.867 327.402 998.299 327.162C998.731 326.91 999.229 326.784 999.793 326.784C1000.51 326.784 1001.13 326.952 1001.63 327.288C1002.13 327.612 1002.5 328.11 1002.73 328.782C1002.99 328.134 1003.36 327.642 1003.84 327.306C1004.32 326.958 1004.89 326.784 1005.55 326.784C1006.57 326.784 1007.37 327.12 1007.95 327.792C1008.52 328.452 1008.81 329.472 1008.79 330.852V336H1007.1V331.392C1007.1 330.576 1007.01 329.958 1006.83 329.538C1006.66 329.106 1006.44 328.806 1006.15 328.638C1005.86 328.47 1005.52 328.38 1005.14 328.368C1004.47 328.368 1003.95 328.626 1003.57 329.142C1003.21 329.658 1003.03 330.384 1003.03 331.32V336H1001.32V331.392C1001.32 330.576 1001.24 329.958 1001.07 329.538C1000.9 329.106 1000.67 328.806 1000.37 328.638C1000.08 328.47 999.745 328.38 999.361 328.368C998.689 328.368 998.167 328.626 997.795 329.142C997.435 329.658 997.255 330.384 997.255 331.32V336H995.545ZM1014.96 336.216C1014.08 336.216 1013.31 336.018 1012.64 335.622C1011.96 335.214 1011.44 334.656 1011.05 333.948C1010.67 333.24 1010.48 332.424 1010.48 331.5C1010.48 330.576 1010.67 329.76 1011.05 329.052C1011.44 328.344 1011.96 327.792 1012.64 327.396C1013.32 326.988 1014.1 326.784 1014.98 326.784C1015.8 326.784 1016.53 326.994 1017.15 327.414C1017.78 327.822 1018.26 328.41 1018.61 329.178C1018.97 329.934 1019.15 330.828 1019.15 331.86H1011.88L1012.2 331.59C1012.2 332.226 1012.33 332.778 1012.58 333.246C1012.83 333.714 1013.18 334.074 1013.61 334.326C1014.04 334.566 1014.53 334.686 1015.08 334.686C1015.68 334.686 1016.18 334.548 1016.58 334.272C1016.99 333.984 1017.3 333.624 1017.53 333.192L1019.01 333.876C1018.77 334.344 1018.46 334.758 1018.07 335.118C1017.69 335.466 1017.23 335.736 1016.7 335.928C1016.19 336.12 1015.61 336.216 1014.96 336.216ZM1012.31 330.78L1011.97 330.51H1017.66L1017.33 330.78C1017.33 330.252 1017.23 329.802 1017.01 329.43C1016.79 329.046 1016.51 328.758 1016.15 328.566C1015.79 328.362 1015.38 328.26 1014.94 328.26C1014.51 328.26 1014.09 328.362 1013.68 328.566C1013.28 328.758 1012.95 329.04 1012.69 329.412C1012.44 329.784 1012.31 330.24 1012.31 330.78ZM1021.88 331.158C1021.88 330.186 1022.07 329.394 1022.44 328.782C1022.81 328.17 1023.29 327.714 1023.88 327.414C1024.47 327.114 1025.09 326.964 1025.74 326.964V328.584C1025.2 328.584 1024.68 328.668 1024.19 328.836C1023.71 328.992 1023.31 329.256 1023 329.628C1022.7 329.988 1022.55 330.48 1022.55 331.104L1021.88 331.158ZM1020.84 336V327H1022.55V336H1020.84ZM1027.22 336V327H1028.93V336H1027.22ZM1028.09 325.092C1027.81 325.092 1027.57 324.99 1027.37 324.786C1027.16 324.57 1027.06 324.324 1027.06 324.048C1027.06 323.76 1027.16 323.52 1027.37 323.328C1027.57 323.124 1027.81 323.022 1028.09 323.022C1028.38 323.022 1028.62 323.124 1028.81 323.328C1029.01 323.52 1029.11 323.76 1029.11 324.048C1029.11 324.324 1029.01 324.57 1028.81 324.786C1028.62 324.99 1028.38 325.092 1028.09 325.092ZM1035.54 336.216C1034.64 336.216 1033.85 336.018 1033.15 335.622C1032.45 335.214 1031.91 334.656 1031.51 333.948C1031.13 333.24 1030.94 332.424 1030.94 331.5C1030.94 330.576 1031.13 329.76 1031.51 329.052C1031.91 328.344 1032.45 327.792 1033.13 327.396C1033.83 326.988 1034.62 326.784 1035.51 326.784C1036.38 326.784 1037.17 326.988 1037.87 327.396C1038.57 327.804 1039.1 328.386 1039.45 329.142L1037.9 329.79C1037.67 329.346 1037.34 328.998 1036.91 328.746C1036.49 328.494 1036.01 328.368 1035.45 328.368C1034.91 328.368 1034.43 328.5 1034.01 328.764C1033.59 329.028 1033.26 329.4 1033.02 329.88C1032.78 330.348 1032.66 330.888 1032.66 331.5C1032.66 332.112 1032.78 332.652 1033.02 333.12C1033.26 333.588 1033.6 333.96 1034.03 334.236C1034.46 334.5 1034.95 334.632 1035.49 334.632C1036.04 334.632 1036.53 334.494 1036.97 334.218C1037.4 333.93 1037.72 333.546 1037.94 333.066L1039.5 333.696C1039.16 334.488 1038.63 335.106 1037.92 335.55C1037.22 335.994 1036.43 336.216 1035.54 336.216ZM1046.72 336L1046.65 334.434V331.302C1046.65 330.642 1046.57 330.09 1046.42 329.646C1046.27 329.202 1046.04 328.866 1045.73 328.638C1045.43 328.41 1045.03 328.296 1044.53 328.296C1044.06 328.296 1043.65 328.392 1043.3 328.584C1042.97 328.776 1042.68 329.076 1042.46 329.484L1040.94 328.908C1041.16 328.5 1041.43 328.14 1041.75 327.828C1042.08 327.504 1042.47 327.252 1042.92 327.072C1043.38 326.88 1043.91 326.784 1044.53 326.784C1045.38 326.784 1046.09 326.952 1046.65 327.288C1047.21 327.624 1047.63 328.11 1047.91 328.746C1048.2 329.382 1048.34 330.168 1048.32 331.104L1048.31 336H1046.72ZM1044.08 336.216C1043.01 336.216 1042.17 335.976 1041.57 335.496C1040.99 335.004 1040.69 334.326 1040.69 333.462C1040.69 332.538 1041 331.836 1041.61 331.356C1042.23 330.864 1043.1 330.618 1044.2 330.618H1046.7V331.968H1044.67C1043.84 331.968 1043.26 332.1 1042.92 332.364C1042.59 332.616 1042.42 332.97 1042.42 333.426C1042.42 333.846 1042.58 334.176 1042.89 334.416C1043.21 334.644 1043.66 334.758 1044.22 334.758C1044.71 334.758 1045.14 334.656 1045.5 334.452C1045.86 334.236 1046.14 333.936 1046.34 333.552C1046.55 333.168 1046.65 332.73 1046.65 332.238H1047.24C1047.24 333.462 1046.98 334.434 1046.45 335.154C1045.94 335.862 1045.14 336.216 1044.08 336.216Z" fill="white"/>
<g clip-path="url(#clip7_312_76)">
<path d="M1015.5 195C986.524 195 963 218.524 963 247.5C963 276.476 986.524 300 1015.5 300C1044.42 300 1067.91 276.56 1067.99 247.655C1068 247.604 1068 247.552 1068 247.5C1068 247.453 1068 247.407 1067.99 247.36C1067.92 218.449 1044.43 195 1015.5 195ZM1015.5 198.15C1015.99 198.15 1016.48 198.172 1016.97 198.187C1020.88 199.145 1023.96 199.967 1024.85 203.768C1029.01 206.342 1033.12 208.644 1036.01 212.43C1033.71 213.102 1030.34 211.985 1030.84 209.246C1029.34 211.326 1028.56 210.403 1026.52 210.373C1028.11 210.724 1028.75 213.999 1030.81 212.114C1033.3 214.602 1027.42 215.75 1026.18 214.806C1023.01 215.1 1026.8 218.323 1022.99 218.083C1020 220.387 1022.23 224.258 1018.01 225.338C1012.7 226.916 1020.47 233.971 1015.17 234.833C1014.96 232.579 1013.51 228.575 1010.16 228.633C1006.96 230.878 999.964 227.013 999.375 233.295C997.105 236.355 999.679 242.843 1003.78 240.544C1004.56 238.333 1011.1 235.404 1009.44 239.681C1008.77 242.355 1006.86 244.828 1010.67 243.887C1016.04 244.112 1012.23 248.649 1014.09 251.261C1016.17 252.432 1019.34 251.987 1021.47 251.887C1022.01 248.331 1027.66 248.545 1028.01 248.406C1028.6 246.932 1031.42 248.442 1030.97 250.051C1034.55 249.974 1033.72 247.867 1037.07 249.458C1039.79 246.939 1037.77 252.398 1041.07 252.778C1043.27 254.99 1048.29 252.932 1048.74 257.63C1049.95 262.102 1056.57 259.349 1058.72 262.465C1058.6 267.252 1054.56 270.66 1053.3 275.149C1051.31 280.142 1045.51 281.289 1042.89 285.718C1039.13 289.12 1034.93 291.57 1030.42 293.618C1029.53 294.124 1028.03 294.851 1026.73 295.552C1024.28 296.122 1021.78 296.504 1019.27 296.692C1019.75 295.383 1022.05 293.826 1022.49 292.478C1024.17 288.824 1029.26 283.17 1024.79 280.001C1021.47 279.419 1020.47 276.39 1018.89 274.142C1017.89 271.128 1013.5 268.862 1015.94 266.019C1014.79 263.259 1018.59 260.689 1019.81 258.394C1020.19 255.941 1017.77 252.02 1016.45 255.275C1013.74 254.438 1010.43 252.678 1009.46 249.832C1006.59 247.937 1002.59 245.892 999.81 244.565C996.339 244.726 993.17 242.21 990.638 240.113C990.392 236.463 988.22 231.955 986.467 229.603C988.056 232.055 987.814 238.658 985.257 233.152C984.522 230.653 984.151 227.388 984 224.603C982.093 223.317 982.978 217.727 984.845 215.397C986.929 213.77 988.623 208.947 988.516 208.135C987.339 208.56 989.228 206.543 990.132 205.16C997.793 200.56 1006.56 198.137 1015.5 198.15ZM1022.62 198.669C1025.79 199.126 1028.91 199.892 1031.92 200.956C1031.97 201.071 1032.01 201.189 1032.08 201.323C1036.57 206.442 1027.46 201.821 1025.56 200.289C1024.91 199.731 1023.82 199.153 1022.62 198.669ZM1016.5 199.969C1015.35 200.027 1014.43 200.599 1015.94 201.476C1014.98 203.908 1009.09 200.552 1009.03 204.187C1010.85 205.965 1014.73 205.781 1016.23 207.574C1014.92 205.173 1018.32 204.548 1017.31 206.053C1017.13 207.117 1018.6 204.418 1017.11 205.147C1016.64 202.309 1015.08 202.139 1018.35 200.459C1017.97 200.082 1017.19 199.934 1016.5 199.969ZM1019.11 231.785C1020.78 231.861 1022.24 235.355 1023.22 235.392C1023.33 235.07 1024.47 238.815 1022.96 237.324C1020.6 236.751 1021.04 232.035 1019.8 235.862C1016.68 235.941 1020.6 232.2 1017.91 232.363C1018.32 231.933 1018.72 231.766 1019.11 231.785ZM1015.19 235.519C1018.52 235.62 1021.69 239.53 1024.18 237.773C1025.12 238.487 1025.37 240.247 1028.27 239.81C1031.83 240.968 1029.88 242.397 1027.7 242.151C1027.05 242.054 1026.69 243.476 1026.1 242.453C1024.69 242.614 1021.42 241.712 1024.15 240.671C1024.16 238.314 1019.19 242.416 1019.17 239.327C1016.95 238.538 1015.45 237.012 1013.6 238.573C1012.57 237.762 1009.96 237.84 1012.87 236.176C1013.56 235.721 1014.37 235.492 1015.19 235.519ZM1035.25 241.06C1035.64 240.909 1036.64 242.94 1036.99 241.467C1037.67 243.252 1039.48 248.138 1037.08 248.402C1038.33 245.777 1036.29 243.391 1035.1 241.583C1035.11 241.247 1035.17 241.095 1035.25 241.06Z" fill="white"/>
</g>
<g clip-path="url(#clip8_312_76)">
<path d="M1303.28 28.7668L1313.67 31.7641L1325.08 23.4766L1308.7 23.946C1308.54 23.9548 1308.39 24.0045 1308.25 24.0905L1303.07 27.0696C1302.91 27.1589 1302.78 27.2945 1302.69 27.4589C1302.61 27.6233 1302.58 27.8089 1302.6 27.9917C1302.62 28.1745 1302.7 28.3461 1302.82 28.4843C1302.95 28.6225 1303.11 28.7209 1303.28 28.7668Z" fill="white"/>
<path d="M1354.33 19.4859L1342.95 17.0304C1342 16.8227 1341.01 16.8232 1340.05 17.0319C1339.09 17.2407 1338.19 17.6527 1337.41 18.2401L1303.05 43.2109L1294.8 42.8498C1294.33 42.8337 1293.86 42.9665 1293.47 43.2295C1293.07 43.4924 1292.77 43.8721 1292.61 44.3151C1292.44 44.758 1292.42 45.2418 1292.54 45.6981C1292.67 46.1544 1292.93 46.5602 1293.3 46.8581L1301.33 53.2317C1301.47 53.3385 1301.62 53.4094 1301.79 53.4379C1301.96 53.4663 1302.13 53.4513 1302.29 53.3942C1304.58 52.5095 1313.12 47.9776 1323.22 42.4345L1325.24 63.2165C1325.26 63.3965 1325.32 63.5683 1325.43 63.7136C1325.54 63.8588 1325.68 63.9719 1325.85 64.0407C1326.02 64.1094 1326.2 64.1312 1326.38 64.1037C1326.56 64.0762 1326.73 64.0004 1326.87 63.8845L1331.38 60.129C1331.63 59.9217 1331.79 59.6341 1331.85 59.3165L1336.13 35.3206C1343.35 31.3123 1350.25 27.4304 1355.1 24.6859C1355.61 24.4116 1356.02 23.9891 1356.27 23.4754C1356.53 22.9618 1356.62 22.3819 1356.53 21.8144C1356.45 21.2469 1356.19 20.7191 1355.8 20.3026C1355.4 19.8861 1354.89 19.601 1354.33 19.4859Z" fill="white"/>
</g>
<path d="M1299.31 248L1294.33 235.4H1296.13L1301.2 248H1299.31ZM1289.16 248L1294.24 235.4H1296.04L1291.05 248H1289.16ZM1291.56 244.634V243.05H1298.81V244.634H1291.56ZM1308.67 248L1308.56 246.344V239H1310.25V248H1308.67ZM1302.33 243.608V239H1304.04V243.608H1302.33ZM1304.04 243.608C1304.04 244.412 1304.13 245.03 1304.31 245.462C1304.5 245.894 1304.77 246.194 1305.1 246.362C1305.44 246.53 1305.82 246.62 1306.24 246.632C1306.97 246.632 1307.54 246.374 1307.95 245.858C1308.35 245.342 1308.56 244.616 1308.56 243.68H1309.3C1309.3 244.628 1309.15 245.444 1308.86 246.128C1308.59 246.8 1308.19 247.316 1307.68 247.676C1307.16 248.036 1306.53 248.216 1305.79 248.216C1305.09 248.216 1304.48 248.072 1303.95 247.784C1303.43 247.496 1303.03 247.046 1302.74 246.434C1302.47 245.822 1302.33 245.03 1302.33 244.058V243.608H1304.04ZM1315.86 248.216C1315.22 248.216 1314.65 248.12 1314.15 247.928C1313.66 247.736 1313.24 247.478 1312.89 247.154C1312.55 246.83 1312.3 246.464 1312.13 246.056L1313.61 245.408C1313.8 245.78 1314.09 246.086 1314.47 246.326C1314.86 246.566 1315.28 246.686 1315.75 246.686C1316.27 246.686 1316.69 246.59 1317.03 246.398C1317.36 246.206 1317.53 245.936 1317.53 245.588C1317.53 245.252 1317.41 244.988 1317.15 244.796C1316.9 244.604 1316.54 244.448 1316.06 244.328L1315.21 244.112C1314.37 243.884 1313.72 243.542 1313.25 243.086C1312.79 242.63 1312.56 242.114 1312.56 241.538C1312.56 240.662 1312.85 239.984 1313.41 239.504C1313.97 239.024 1314.81 238.784 1315.91 238.784C1316.45 238.784 1316.94 238.862 1317.39 239.018C1317.84 239.174 1318.23 239.396 1318.54 239.684C1318.86 239.972 1319.09 240.314 1319.22 240.71L1317.78 241.358C1317.64 240.998 1317.39 240.734 1317.05 240.566C1316.7 240.386 1316.29 240.296 1315.82 240.296C1315.34 240.296 1314.96 240.404 1314.69 240.62C1314.41 240.824 1314.27 241.112 1314.27 241.484C1314.27 241.688 1314.39 241.886 1314.62 242.078C1314.86 242.258 1315.2 242.408 1315.66 242.528L1316.63 242.762C1317.22 242.906 1317.71 243.128 1318.09 243.428C1318.47 243.716 1318.76 244.046 1318.95 244.418C1319.15 244.778 1319.24 245.156 1319.24 245.552C1319.24 246.092 1319.09 246.566 1318.79 246.974C1318.5 247.37 1318.1 247.676 1317.59 247.892C1317.08 248.108 1316.51 248.216 1315.86 248.216ZM1324.49 248.216C1323.59 248.216 1322.9 247.988 1322.41 247.532C1321.91 247.064 1321.67 246.398 1321.67 245.534V236.192H1323.38V245.282C1323.38 245.726 1323.49 246.068 1323.7 246.308C1323.93 246.536 1324.25 246.65 1324.67 246.65C1324.79 246.65 1324.93 246.626 1325.07 246.578C1325.21 246.53 1325.39 246.434 1325.59 246.29L1326.24 247.622C1325.93 247.826 1325.63 247.976 1325.34 248.072C1325.06 248.168 1324.78 248.216 1324.49 248.216ZM1320.14 240.476V239H1325.93V240.476H1320.14ZM1328.97 243.158C1328.97 242.186 1329.16 241.394 1329.53 240.782C1329.9 240.17 1330.38 239.714 1330.97 239.414C1331.56 239.114 1332.18 238.964 1332.82 238.964V240.584C1332.28 240.584 1331.77 240.668 1331.28 240.836C1330.8 240.992 1330.4 241.256 1330.09 241.628C1329.79 241.988 1329.64 242.48 1329.64 243.104L1328.97 243.158ZM1327.93 248V239H1329.64V248H1327.93ZM1339.73 248L1339.66 246.434V243.302C1339.66 242.642 1339.58 242.09 1339.42 241.646C1339.28 241.202 1339.05 240.866 1338.74 240.638C1338.44 240.41 1338.04 240.296 1337.53 240.296C1337.07 240.296 1336.66 240.392 1336.31 240.584C1335.97 240.776 1335.69 241.076 1335.46 241.484L1333.95 240.908C1334.17 240.5 1334.44 240.14 1334.76 239.828C1335.09 239.504 1335.48 239.252 1335.93 239.072C1336.39 238.88 1336.92 238.784 1337.53 238.784C1338.39 238.784 1339.09 238.952 1339.66 239.288C1340.22 239.624 1340.64 240.11 1340.92 240.746C1341.21 241.382 1341.34 242.168 1341.33 243.104L1341.31 248H1339.73ZM1337.08 248.216C1336.02 248.216 1335.18 247.976 1334.58 247.496C1333.99 247.004 1333.7 246.326 1333.7 245.462C1333.7 244.538 1334.01 243.836 1334.62 243.356C1335.24 242.864 1336.11 242.618 1337.21 242.618H1339.71V243.968H1337.68C1336.85 243.968 1336.27 244.1 1335.93 244.364C1335.6 244.616 1335.43 244.97 1335.43 245.426C1335.43 245.846 1335.58 246.176 1335.9 246.416C1336.22 246.644 1336.66 246.758 1337.23 246.758C1337.72 246.758 1338.15 246.656 1338.51 246.452C1338.87 246.236 1339.15 245.936 1339.35 245.552C1339.56 245.168 1339.66 244.73 1339.66 244.238H1340.25C1340.25 245.462 1339.99 246.434 1339.46 247.154C1338.94 247.862 1338.15 248.216 1337.08 248.216ZM1343.48 248V235.4H1345.19V248H1343.48ZM1347.67 248V239H1349.38V248H1347.67ZM1348.54 237.092C1348.26 237.092 1348.02 236.99 1347.82 236.786C1347.61 236.57 1347.51 236.324 1347.51 236.048C1347.51 235.76 1347.61 235.52 1347.82 235.328C1348.02 235.124 1348.26 235.022 1348.54 235.022C1348.82 235.022 1349.06 235.124 1349.26 235.328C1349.46 235.52 1349.56 235.76 1349.56 236.048C1349.56 236.324 1349.46 236.57 1349.26 236.786C1349.06 236.99 1348.82 237.092 1348.54 237.092ZM1357.41 248L1357.34 246.434V243.302C1357.34 242.642 1357.26 242.09 1357.11 241.646C1356.96 241.202 1356.74 240.866 1356.42 240.638C1356.12 240.41 1355.72 240.296 1355.22 240.296C1354.75 240.296 1354.34 240.392 1353.99 240.584C1353.66 240.776 1353.38 241.076 1353.15 241.484L1351.64 240.908C1351.85 240.5 1352.12 240.14 1352.45 239.828C1352.77 239.504 1353.16 239.252 1353.62 239.072C1354.07 238.88 1354.61 238.784 1355.22 238.784C1356.07 238.784 1356.78 238.952 1357.34 239.288C1357.91 239.624 1358.33 240.11 1358.6 240.746C1358.89 241.382 1359.03 242.168 1359.02 243.104L1359 248H1357.41ZM1354.77 248.216C1353.7 248.216 1352.87 247.976 1352.27 247.496C1351.68 247.004 1351.38 246.326 1351.38 245.462C1351.38 244.538 1351.69 243.836 1352.3 243.356C1352.93 242.864 1353.79 242.618 1354.89 242.618H1357.4V243.968H1355.36C1354.53 243.968 1353.95 244.1 1353.62 244.364C1353.28 244.616 1353.11 244.97 1353.11 245.426C1353.11 245.846 1353.27 246.176 1353.58 246.416C1353.9 246.644 1354.35 246.758 1354.91 246.758C1355.4 246.758 1355.83 246.656 1356.19 246.452C1356.55 246.236 1356.83 245.936 1357.04 245.552C1357.24 245.168 1357.34 244.73 1357.34 244.238H1357.94C1357.94 245.462 1357.67 246.434 1357.14 247.154C1356.63 247.862 1355.84 248.216 1354.77 248.216Z" fill="white"/>
<g clip-path="url(#clip9_312_76)">
<path d="M1324.5 100C1295.52 100 1272 123.524 1272 152.5C1272 181.476 1295.52 205 1324.5 205C1353.42 205 1376.91 181.56 1376.99 152.655C1377 152.604 1377 152.552 1377 152.5C1377 152.453 1377 152.407 1376.99 152.36C1376.92 123.449 1353.43 100 1324.5 100ZM1325.92 103.185C1327.04 103.216 1328.15 103.277 1329.26 103.382C1329.32 103.418 1329.03 103.447 1327.8 103.763C1327.47 103.553 1326.75 103.363 1325.92 103.185ZM1341.93 108.06C1342.71 107.923 1343.98 108.676 1343.23 110.132C1345.88 112.715 1348.22 117.092 1343.46 119.001C1342.53 119.401 1341.31 119.075 1340.88 118.108C1341.82 118.211 1341.63 117.65 1340.46 116.155C1343.04 116.688 1337.34 110.807 1337.57 112.368C1331.58 110.844 1338.75 108.129 1341.56 109.304C1341.15 108.542 1341.45 108.142 1341.93 108.06ZM1346.4 108.269C1349.13 109.618 1351.72 111.216 1354.15 113.043C1353.96 113.313 1354.02 113.507 1354.9 113.628C1366.43 122.658 1373.85 136.701 1373.85 152.5C1373.85 172.663 1361.78 189.974 1344.47 197.635C1345.45 196.777 1346.49 195.712 1347.51 195.281C1349.64 193.197 1355.59 189.023 1352.97 186.414C1351.98 184.359 1349.86 182.876 1349.77 180.389C1346.73 179.389 1348.93 172.299 1352.24 176.013C1354.89 178.999 1357.77 173.218 1355.37 174.096C1351.71 174.248 1355.9 171.407 1357.7 170.436C1359.34 166.968 1359.99 175.781 1361.62 172.053C1360.98 172.979 1365.77 175.46 1363.59 171.605C1360.74 171.649 1359.34 167.823 1357.06 167.671C1355.38 165.361 1354.44 167.854 1356.3 168.531C1357.31 170.962 1353.77 170.055 1352.68 171.377C1351.33 169.171 1346.14 168.477 1342.97 168.479C1341.06 167.754 1336.91 167.101 1334.91 167.665C1335.59 169.725 1331.84 172.445 1330.46 169.405C1327.01 169.282 1328.33 167.924 1330.2 166.445C1331.09 162.558 1327.5 168.299 1325.18 165.834C1322.41 167.416 1321.48 171.164 1322.71 173.143C1326.16 177.028 1321.18 176.437 1318.28 176.093C1320.9 174.767 1315.66 175.082 1313.25 173.769C1312.39 175.783 1305.21 171.371 1309.52 171.288C1312.73 170.053 1305.9 169.528 1306.76 167.14C1305.65 163.723 1305.57 160.57 1302.22 157.921C1299.81 155.28 1302.93 150.152 1304.65 155.054C1306.22 157.292 1307.19 158.659 1309.4 156.132C1313.3 154.975 1312.51 149.664 1309.95 147.572C1305.72 145.785 1313.23 141.395 1311.71 144.464C1309.26 148.426 1315.61 146.65 1314.21 143.442C1319.04 142.864 1323.76 140.2 1325.73 135.548C1328.9 131.883 1320.82 127.999 1326.52 126.31C1324.28 124.592 1325.79 125.012 1327.23 124.199C1327.85 124.508 1330.31 127.441 1328.7 128.629C1330.29 130.947 1330.1 130.12 1331.92 128.826C1331.6 130.911 1334.23 131.101 1333.3 133.934C1335.35 132.391 1336.64 129.493 1339.52 129.392C1343.37 129.803 1343.77 124.619 1341.55 121.678C1343.27 121.861 1346.9 118.129 1347.12 115.055C1348.83 112.827 1344.56 109.243 1346.43 108.781C1346.41 108.611 1346.4 108.44 1346.4 108.269ZM1338.37 114.229C1338.73 114.358 1340.55 119.143 1340.33 120.056C1338.86 121.341 1341.58 125.147 1339.31 125.378C1338.03 127.342 1335.51 126.25 1333.87 128.832C1333.85 129.271 1332.85 129.256 1333.15 128.701C1333.9 125.611 1329.37 124.189 1332.62 121.928C1335.03 120.878 1338.38 119.849 1338.61 115.967C1338.28 114.66 1338.24 114.185 1338.37 114.229ZM1278.58 134.713C1278.68 134.704 1278.8 134.818 1278.93 135.088C1283.18 135.642 1279.51 138.427 1281.8 140.574C1281.24 145.075 1281.18 149.966 1282.46 154.447C1283.72 154.438 1284.29 153.788 1284.06 156.849C1287.57 158.946 1283.99 151.683 1285.18 150.079C1285.27 145.989 1289.8 144.472 1292.32 141.763C1296.8 139.965 1296.25 146.273 1296.77 148.641C1298.75 148.232 1299.98 148.197 1299.67 151.234C1298.61 154.222 1299.22 158.009 1301.23 160.503C1303.14 166.27 1299.33 159.023 1296.47 159.338C1296.21 161.501 1298.67 164.173 1299.38 166.241C1299.86 170.434 1303.12 169.767 1305.22 172.806C1307.94 176.105 1312.28 176.649 1316.32 177.105C1319.85 177.007 1323.24 179.445 1326.19 178.964C1323.44 178.407 1327.53 176.723 1327.51 177.982C1324.6 182.045 1332.78 176.825 1332.31 176.512C1336.45 176.932 1330.28 174.545 1328.44 176.134C1326.12 178.1 1325.96 173.751 1325.46 176.36C1324.65 175.461 1324.01 170.807 1326.21 174.321C1330.06 175.844 1327.95 171.866 1326.19 170.125C1329.51 170.051 1331.44 173.477 1335.34 171.896C1339.81 174.277 1334.15 169.577 1337.08 169.893C1337.2 174.139 1342.66 170.751 1344.19 174.366C1340.94 176.964 1345.11 175.357 1346.57 176.653C1348.31 176.704 1345.2 184.908 1344.58 182.837C1340.78 183.12 1341.41 181.938 1342.3 179.079C1341.5 178.936 1335 177.865 1334.86 180.049C1334.94 183.599 1331.68 181.051 1329.48 182.219C1326.23 184.453 1324.06 188.073 1319.53 187.756C1313.69 189.055 1319.73 193.872 1319.4 196.72C1323.38 198.709 1328.59 195.812 1333 195.475C1336.29 195.459 1338.11 197.484 1340.95 197.625C1341.22 198.214 1341.52 198.548 1341.85 198.712C1336.3 200.792 1330.42 201.855 1324.5 201.85C1297.23 201.85 1275.15 179.774 1275.15 152.5C1275.15 148.538 1275.63 144.692 1276.51 141.001C1277.93 139.361 1277.99 134.764 1278.58 134.713ZM1325.52 138.827C1324.37 138.75 1322.38 140.58 1324.05 142.47C1326.11 143.394 1325.27 142.243 1325.68 141.42C1326.58 139.604 1326.2 138.872 1325.52 138.827ZM1325.2 145.478C1324.39 145.558 1323.57 146.48 1323.45 148.449C1323.17 151.403 1324.94 153.505 1322.24 155.692C1319.56 158.396 1318.31 162.91 1314.06 163.905C1312.16 167.84 1311.32 162.321 1309.81 162.056C1311.36 164.381 1309.44 168.367 1311.82 169.793C1312.51 172.626 1317.75 171.839 1318.79 172.807C1320.26 173.634 1320.24 167.74 1322.13 167.541C1324.3 166.29 1319.71 163.869 1322.9 162.87C1325.92 163.038 1327.08 157.34 1328.96 161.65C1333.46 162.359 1331.49 154.804 1329.6 152.909C1329.88 150.876 1324.29 150.82 1326.85 148.888C1327.28 146.656 1326.24 145.373 1325.2 145.478ZM1324.66 154.379C1325.07 155.629 1324.72 155.427 1325.97 155.034C1325.99 157.045 1326.6 160.278 1323.96 161.211L1323.72 161.441L1322.93 161.437C1318.08 159.418 1323.88 156.825 1324.66 154.379ZM1333.8 165.026C1332.85 164.929 1330.97 166.989 1331.89 169.393C1332.7 171.098 1334.35 169.127 1333.73 167.924C1334.62 165.922 1334.38 165.086 1333.8 165.026Z" fill="white"/>
</g>
<defs>
<clipPath id="clip0_312_76">
<rect width="65" height="65" fill="white" transform="translate(56 8)"/>
</clipPath>
<clipPath id="clip1_312_76">
<rect width="105" height="105" fill="white" transform="translate(36 88)"/>
</clipPath>
<clipPath id="clip2_312_76">
<rect width="65" height="65" fill="white" transform="translate(365 109)"/>
</clipPath>
<clipPath id="clip3_312_76">
<rect width="105" height="105" fill="white" transform="translate(345 195)"/>
</clipPath>
<clipPath id="clip4_312_76">
<rect width="65" height="65" fill="white" transform="translate(674 165)"/>
</clipPath>
<clipPath id="clip5_312_76">
<rect width="105" height="105" fill="white" transform="translate(654 251)"/>
</clipPath>
<clipPath id="clip6_312_76">
<rect width="65" height="65" fill="white" transform="translate(982 124)"/>
</clipPath>
<clipPath id="clip7_312_76">
<rect width="105" height="105" fill="white" transform="translate(963 195)"/>
</clipPath>
<clipPath id="clip8_312_76">
<rect width="65" height="65" fill="white" transform="translate(1292 8)"/>
</clipPath>
<clipPath id="clip9_312_76">
<rect width="105" height="105" fill="white" transform="translate(1272 100)"/>
</clipPath>
</defs>
</svg>
